<svg xmlns="http://www.w3.org/2000/svg" viewBox="0 0 16 16"><defs><style>.cls-1{isolation:isolate;}.cls-2{opacity:0.7;mix-blend-mode:multiply;}</style></defs><title>download</title><g class="cls-1"><g id="Layer_3" data-name="Layer 3"><path d="M7.47,10.53a.78.78,0,0,0,.24.16.72.72,0,0,0,.29.06.75.75,0,0,0,.29-.06.78.78,0,0,0,.24-.16L11.36,7.7A.75.75,0,0,0,10.3,6.64L8.75,8.19V3a.75.75,0,0,0-1.5,0V8.19L5.7,6.64A.75.75,0,0,0,4.64,7.7Z"/><path d="M13,10.25a.76.76,0,0,0-.75.75v.75a.5.5,0,0,1-.5.5H4.25a.5.5,0,0,1-.5-.5V11a.75.75,0,0,0-1.5,0v.75a2,2,0,0,0,2,2h7.5a2,2,0,0,0,2-2V11A.76.76,0,0,0,13,10.25Z"/></g></g></svg>