<svg xmlns="http://www.w3.org/2000/svg" viewBox="0 0 16 16"><defs><style>.cls-1{isolation:isolate;}.cls-2{opacity:0.7;mix-blend-mode:multiply;}</style></defs><title>dribbble</title><g class="cls-1"><g id="Layer_3" data-name="Layer 3"><path d="M15.12,8A7.12,7.12,0,1,0,3.24,13.27v0h0A7,7,0,0,0,11,14.45l0,0A7.11,7.11,0,0,0,15.12,8ZM11.4,12.46a15.16,15.16,0,0,0-.69-3.58,8.38,8.38,0,0,1,2.87-.25A5.62,5.62,0,0,1,11.4,12.46Zm1-7.88a5.53,5.53,0,0,1,1.1,2.55,10.2,10.2,0,0,0-3.35.34c-.15-.34-.3-.66-.46-1A7.89,7.89,0,0,0,12.44,4.58ZM11.37,3.52A6.63,6.63,0,0,1,9,5.2,14.32,14.32,0,0,0,6.71,2.54a5.48,5.48,0,0,1,4.66,1ZM5.15,3.17A13,13,0,0,1,7.49,5.73a19,19,0,0,1-4.87.65A5.64,5.64,0,0,1,5.15,3.17ZM2.38,8s0-.07,0-.11A20.1,20.1,0,0,0,8.3,7.05c.16.29.31.59.45.91a14.55,14.55,0,0,0-5,3.66A5.63,5.63,0,0,1,2.38,8Zm2.44,4.63A13.06,13.06,0,0,1,9.28,9.36a14.3,14.3,0,0,1,.66,3.9A5.48,5.48,0,0,1,8,13.62,5.62,5.62,0,0,1,4.82,12.63Z"/></g></g></svg>