<svg xmlns="http://www.w3.org/2000/svg" viewBox="0 0 16 16"><defs><style>.cls-1{isolation:isolate;}.cls-2{opacity:0.7;mix-blend-mode:multiply;}</style></defs><title>linkedin</title><g class="cls-1"><g id="Layer_3" data-name="Layer 3"><path d="M2,3.61a2.17,2.17,0,0,1,.07-.24A1.38,1.38,0,0,1,3.5,2.49a1.33,1.33,0,0,1,.15,2.65A2.08,2.08,0,0,1,3,5.08a1.23,1.23,0,0,1-.92-1L2,4Z"/><path d="M8.72,13.94H6.15V6.22H8.72V7.29L9,7a2.5,2.5,0,0,1,1.71-.9,2.94,2.94,0,0,1,2.11.52A2.71,2.71,0,0,1,13.85,8.3,6.25,6.25,0,0,1,14,9.52c0,1.44,0,2.88,0,4.31,0,0,0,.07,0,.11H11.43v-.17c0-1.29,0-2.57,0-3.86a3.69,3.69,0,0,0-.13-1,1.25,1.25,0,0,0-2-.59,1.49,1.49,0,0,0-.58,1.25c0,1.4,0,2.79,0,4.19Z"/><path d="M4.72,13.94H2.16V6.22H4.72Z"/></g></g></svg>