<svg xmlns="http://www.w3.org/2000/svg" viewBox="0 0 200 60"><defs><style>.cls-1{fill:#333;}.cls-2{fill:none;}</style></defs><title>logo-carula</title><g id="Layer_2" data-name="Layer 2"><g id="Layer_3" data-name="Layer 3"><path class="cls-1" d="M165.3,46.48a10,10,0,0,1-3.45-.38c-2.11-.9-5.72-4.92-7-10.12l-.21-.88a1.32,1.32,0,0,1,.17-.84c3.63-5.36,4.48-11.35,3.7-14.94v-.07c-1.23-5.87-5-9.38-7.06-9.25-6.14.46-9,8.08-9.06,8.15-1.23,2.91-2.86,9.12-.06,18,2.46,7.81,10.5,12.07,16.64,13.35a21.88,21.88,0,0,0,4.19.47c2.63,0,3.63-.77,4-1.35a1.66,1.66,0,0,0,0-1.86C166.9,46.47,166.4,46.47,165.3,46.48ZM153.14,18.74a16.14,16.14,0,0,1,.57-2.82c.06-.19.16-.32.26-.34s.22.06.35.2a4.89,4.89,0,0,1,1,2.73,11,11,0,0,1-1.52,6.5c-.25.43-.43.53-.46.54s-.17-.2-.2-.71A32,32,0,0,1,153.14,18.74Zm5,.6Z"/><path class="cls-1" d="M127.26,31.89a24.25,24.25,0,0,0-.88-3.49,7.13,7.13,0,0,0-6-4.35,2,2,0,0,0-1.56.52,3.36,3.36,0,0,0-.62,2.54A47.09,47.09,0,0,1,118,32c-.23,2.67-1.57,5.18-3.35,6.23a2.78,2.78,0,0,1-2.57.28c-2.22-1-1.46-4.78-.85-7.84a11.8,11.8,0,0,0,.41-4,2.59,2.59,0,0,0-3.11-1.9,6.94,6.94,0,0,0-5.77,5.95,12.71,12.71,0,0,0,3.9,10.49c2.43,2.46,5.64,4.07,8,4.07l.51,0c2.58-.28,5.59-4.66,7-7.2.13-.25.3-.39.46-.39a.66.66,0,0,1,.45.35c1.66,2.78,4.1,4.82,6.36,5.33a.89.89,0,0,0,.93-.25.86.86,0,0,0,0-.94A44.72,44.72,0,0,1,127.26,31.89Z"/><path class="cls-1" d="M67.43,43.11A10,10,0,0,1,60.88,38c-.57-1.12-.28-3.27,0-5a15,15,0,0,0,.22-2.53,4.52,4.52,0,0,0-1-2.22,1.32,1.32,0,0,0,.53-.87h0c.07-1-3.55-5.78-6.8-6-2-.15-6.6,1.28-9.92,4.36a11.15,11.15,0,0,0-3.81,8.31c0,1.8,2.72,7.35,4.54,9.28A4.57,4.57,0,0,0,48.35,45c1.09,0,3.61-2.22,7.5-6.45a.8.8,0,0,1,.81-.29.43.43,0,0,1,.26.4c.29,4,2.95,8.45,6.72,8.82.33,0,.63,0,.92,0,2.57,0,4-1.13,4.45-2.18a1.43,1.43,0,0,0-.2-1.67A4.24,4.24,0,0,0,67.43,43.11ZM46.51,39.55a.3.3,0,0,1,0-.3c1.81-6.45,6-8.32,9.28-8.76h.06a.27.27,0,0,1,.2.07.29.29,0,0,1,.06.21c-.26,1.89-1.84,4.33-4,6.24a10.59,10.59,0,0,1-5.28,2.59C46.65,39.63,46.55,39.61,46.51,39.55Z"/><path class="cls-1" d="M93.15,23.06c1.64-.84,2.93-1.51,3.29-2.56.18-.52.15-1.36-1-2.4-2.16-1.91-6.74-3.23-9.19-2-3.41,1.68-5.26,5.16-5.51,10.36-1-.92-2.3-1.94-3.1-2a1.3,1.3,0,0,0-1,.35c-.8.73-.89,2.37-.89,3a25.29,25.29,0,0,0,4.4,12.45c2.17,3.27,4.46,4.84,5.44,4.84a.66.66,0,0,0,.21,0,1.19,1.19,0,0,0,.72-.66,2.81,2.81,0,0,0-.13-2.18,22.82,22.82,0,0,1-1.51-6.92C84.87,27.34,89.66,24.87,93.15,23.06Z"/><path class="cls-1" d="M194.9,40a5.3,5.3,0,0,0-1.08-.48,6.47,6.47,0,0,1-3-1.87c-.52-.65-.25-2.47,0-4.23.29-2,.58-4,.1-5.48a9.33,9.33,0,0,0-2.55-3.65,23,23,0,0,1-2.17-2.43,6.38,6.38,0,0,0-5.42-2.55,11.39,11.39,0,0,0-9.47,6c-1.74,3.13-2.07,6.92-.81,9.2,2,3.73,6.16,6.41,7.17,6.35h.2c1.06,0,3.88-.1,7-4.19a.85.85,0,0,1,.18-.21,2.22,2.22,0,0,1,.14.24c1.8,3.94,4.87,6.4,8.42,6.75h.07c.65,0,1.33-.81,1.62-1.64A1.47,1.47,0,0,0,194.9,40Zm-16.44-3a.52.52,0,0,1-.49,0,.44.44,0,0,1-.14-.36c.06-4.22,2.21-6.91,5.75-7.2h0a.45.45,0,0,1,.33.12.35.35,0,0,1,.09.29C183.86,32.06,181.71,35.33,178.46,37Z"/><path class="cls-1" d="M24.77,44.33a11.3,11.3,0,0,1-5.4-.24c-3.25-.72-4.57-2.12-5.11-3.17a3.6,3.6,0,0,1-.09-3.14c1.06-2.51,4.2-4.54,7-6.34,2.18-1.41,4.06-2.63,4.52-3.86.6-1.6,0-4.39-1.38-6.64a7.55,7.55,0,0,0-5.56-3.84c-2.63-.24-5.88,1-8.48,3.17A17.46,17.46,0,0,0,4.32,32.56c-.4,5.6,3.42,12.1,8.69,14.81A14.93,14.93,0,0,0,19.63,49a8.21,8.21,0,0,0,5.71-2,2.28,2.28,0,0,0,.56-2.28A1,1,0,0,0,24.77,44.33Z"/><rect class="cls-2" width="200" height="60"/></g></g></svg>