<svg xmlns="http://www.w3.org/2000/svg" viewBox="0 0 120 30"><defs><style>.cls-1{fill:#e6004c;}.cls-2{fill:#333;}.cls-3{fill:none;}</style></defs><title>logo-axon</title><g id="Layer_2" data-name="Layer 2"><g id="Layer_3" data-name="Layer 3"><path class="cls-1" d="M57.65,29.18a1.38,1.38,0,0,1-1-.49L46.22,15.84a1.35,1.35,0,0,1,0-1.68L56.6,1.31A1.34,1.34,0,0,1,58.69,3L49,15l9.71,12a1.36,1.36,0,0,1-.2,1.89A1.34,1.34,0,0,1,57.65,29.18Z"/><path class="cls-2" d="M26.5,29.18a1.34,1.34,0,0,1-1.25-.84l-9-22.6L7.08,28.35a1.34,1.34,0,1,1-2.48-1L15,1.65A1.35,1.35,0,0,1,16.22.82h0a1.32,1.32,0,0,1,1.24.84L27.74,27.35A1.35,1.35,0,0,1,27,29.09,1.41,1.41,0,0,1,26.5,29.18Z"/><path class="cls-2" d="M114.16,29.18a1.32,1.32,0,0,1-1.11-.59l-14.78-22V27.84a1.34,1.34,0,0,1-2.68,0V2.16a1.34,1.34,0,0,1,1-1.28,1.32,1.32,0,0,1,1.5.53l14.78,22V2.16a1.34,1.34,0,1,1,2.68,0V27.84a1.35,1.35,0,0,1-1,1.29A1.74,1.74,0,0,1,114.16,29.18Z"/><path class="cls-2" d="M36.88,29.18a1.36,1.36,0,0,1-.85-.3A1.34,1.34,0,0,1,35.84,27l5.68-7a1.34,1.34,0,0,1,2.07,1.69l-5.67,7A1.36,1.36,0,0,1,36.88,29.18Z"/><path class="cls-2" d="M42.55,10.45a1.34,1.34,0,0,1-1-.49L35.84,3a1.34,1.34,0,0,1,2.08-1.69l5.67,7a1.34,1.34,0,0,1-.19,1.88A1.36,1.36,0,0,1,42.55,10.45Z"/><path class="cls-2" d="M76.48,29.08c-5.61,0-10-4-10-9.16V10c0-5.05,4.49-9.15,10-9.15s10,4,10,9.15v10C86.49,25,82,29.08,76.48,29.08Zm0-25.59c-4,0-7.33,3-7.33,6.48v10c0,3.63,3.22,6.48,7.33,6.48s7.34-3,7.34-6.48V10C83.82,6.34,80.6,3.49,76.48,3.49Z"/><rect class="cls-3" width="120" height="30"/></g></g></svg>