<svg xmlns="http://www.w3.org/2000/svg" viewBox="0 0 190 40"><defs><style>.cls-1{fill:#333;}.cls-2{fill:none;}</style></defs><title>logo-opentrack</title><g id="Layer_2" data-name="Layer 2"><g id="Layer_3" data-name="Layer 3"><path class="cls-1" d="M14.73,6.05A6.8,6.8,0,0,0,9.6,8.1a7.3,7.3,0,0,0-2,5.3V26.6a7.3,7.3,0,0,0,2,5.3A6.8,6.8,0,0,0,14.73,34,6.85,6.85,0,0,0,19.9,31.9a7.31,7.31,0,0,0,2-5.3V13.4a7.31,7.31,0,0,0-2-5.3A6.85,6.85,0,0,0,14.73,6.05Zm5.2,20.5a5.77,5.77,0,0,1-1.45,4.07,4.88,4.88,0,0,1-3.75,1.58A4.75,4.75,0,0,1,11,30.6a5.8,5.8,0,0,1-1.45-4.05V13.45A5.8,5.8,0,0,1,11,9.4a4.75,4.75,0,0,1,3.7-1.6,4.88,4.88,0,0,1,3.75,1.58,5.77,5.77,0,0,1,1.45,4.07Z"/><path class="cls-1" d="M37,6.05a6.13,6.13,0,0,0-2.93.7,5.88,5.88,0,0,0-2.18,2,.18.18,0,0,1-.17.08c-.05,0-.08-.08-.08-.18V7.42a1,1,0,0,0-1.94,0V32.58a1,1,0,0,0,1.94,0V24.35c0-.1,0-.16.08-.18a.18.18,0,0,1,.17.08,5.88,5.88,0,0,0,2.18,2A6.13,6.13,0,0,0,37,27a6.39,6.39,0,0,0,4.92-2,7.5,7.5,0,0,0,1.88-5.32V13.35A7.49,7.49,0,0,0,42,8.1,6.34,6.34,0,0,0,37,6.05Zm4.89,13.5a5.7,5.7,0,0,1-1.47,4.07,4.94,4.94,0,0,1-3.78,1.58,4.59,4.59,0,0,1-3.59-1.58,5.84,5.84,0,0,1-1.41-4.07v-6.1a5.84,5.84,0,0,1,1.41-4.07A4.59,4.59,0,0,1,36.67,7.8a5,5,0,0,1,3.81,1.58,5.77,5.77,0,0,1,1.44,4.07Z"/><path class="cls-1" d="M79.67,6.1a5.73,5.73,0,0,0-5.4,3.1.24.24,0,0,1-.17.1S74,9.25,74,9.15V7.43a1,1,0,1,0-2,0V32.58a1,1,0,0,0,2,0V14.3A7.33,7.33,0,0,1,75.4,9.58a4.49,4.49,0,0,1,3.72-1.73,4.36,4.36,0,0,1,3.6,1.6A7,7,0,0,1,84,14V32.58a1,1,0,0,0,2,0V13.75a8.68,8.68,0,0,0-1.65-5.63A5.66,5.66,0,0,0,79.67,6.1Z"/><path class="cls-1" d="M97.72,15.8H102l.15,0a.83.83,0,0,0,0-1.62l-.15,0H97.72a.2.2,0,0,1-.2-.2V7.43a1,1,0,1,0-2,0V13.9a.2.2,0,0,1-.2.2H93.32a.6.6,0,0,0-.24.05.83.83,0,0,0,0,1.6.6.6,0,0,0,.24.05h2.05a.2.2,0,0,1,.2.2V27.4c0,2.37.46,4,1.38,4.85a5.64,5.64,0,0,0,4,1.3h.86a.57.57,0,0,0,.24,0,.86.86,0,0,0,0-1.65.63.63,0,0,0-.26-.05h-.55a3.56,3.56,0,0,1-2.85-1.05,5.77,5.77,0,0,1-.9-3.7V16A.2.2,0,0,1,97.72,15.8Z"/><path class="cls-1" d="M177.33,6.55a1,1,0,0,0-1.38,0L164.62,17.87V7.43a1,1,0,1,0-2,0V32.57a1,1,0,1,0,2,0V22.13L176,33.45a1,1,0,0,0,1.38-1.38L165.25,20,177.33,7.93A1,1,0,0,0,177.33,6.55Z"/><path class="cls-1" d="M170.07,19.63v.74a.63.63,0,0,0,1.26,0v-.74a.63.63,0,0,0-1.26,0Z"/><path class="cls-1" d="M187.11,19.63v.74a.63.63,0,0,0,.63.63.63.63,0,0,0,.63-.63v-.74a.63.63,0,0,0-.63-.63A.63.63,0,0,0,187.11,19.63Z"/><path class="cls-1" d="M178.59,13.63V26.37a.63.63,0,1,0,1.26,0V13.63a.63.63,0,1,0-1.26,0Z"/><path class="cls-1" d="M174.33,15.63v8.74a.63.63,0,1,0,1.26,0V15.63a.63.63,0,1,0-1.26,0Z"/><path class="cls-1" d="M182.85,15.63v8.74a.63.63,0,0,0,1.26,0V15.63a.63.63,0,0,0-1.26,0Z"/><path class="cls-1" d="M57.77,6.05A6.78,6.78,0,0,0,52.65,8.1a7.31,7.31,0,0,0-2,5.3V26.65a7.19,7.19,0,0,0,2,5.27,6.84,6.84,0,0,0,5.12,2A7,7,0,0,0,62.4,32.4a6.46,6.46,0,0,0,2.06-3.13v0a1,1,0,0,0,0-.1h0a1,1,0,0,0,.05-.25,1,1,0,0,0-1-1,.94.94,0,0,0-.89.65h0A5.11,5.11,0,0,1,61,31.1a5,5,0,0,1-3.25,1.1,4.82,4.82,0,0,1-3.7-1.58,5.77,5.77,0,0,1-1.45-4.07V21a.2.2,0,0,1,.2-.2h9.76a2.34,2.34,0,0,0,2.34-2.34V13.4a7.3,7.3,0,0,0-2-5.3A6.85,6.85,0,0,0,57.77,6.05ZM63,18.1a1,1,0,0,1-1,1H52.82a.2.2,0,0,1-.2-.2V13.45a5.77,5.77,0,0,1,1.45-4.07,5.18,5.18,0,0,1,7.45,0A5.73,5.73,0,0,1,63,13.45Z"/><path class="cls-1" d="M118.28,6.5v0a4.74,4.74,0,0,0-1.51-.23,4.54,4.54,0,0,0-3,1,7.31,7.31,0,0,0-2,2.9q0,.15-.15.15c-.06,0-.1,0-.1-.15V7.43a1,1,0,1,0-2,0V32.58a1,1,0,0,0,2,0v-17a9,9,0,0,1,1.38-5.1,4,4,0,0,1,3.47-2,5,5,0,0,1,1.28.11h0a1,1,0,0,0,.3.06A1.06,1.06,0,0,0,119,7.5,1,1,0,0,0,118.28,6.5Z"/><path class="cls-1" d="M129.87,6.05a7.21,7.21,0,0,0-4.72,1.62,6.09,6.09,0,0,0-2.09,3.47h0c0,.09,0,.17-.07.26h0s0,.07,0,.11a1,1,0,0,0,2,.14h0A4.41,4.41,0,0,1,126.5,9a5.08,5.08,0,0,1,3.32-1.17,4.29,4.29,0,0,1,3.7,1.78,7.87,7.87,0,0,1,1.3,4.77V18.9a.2.2,0,0,1-.2.2h-4.25a8.51,8.51,0,0,0-5.9,2c-1.46,1.31-2.2,3.32-2.2,6,0,2.53.62,4.31,1.85,5.32A6.78,6.78,0,0,0,128.57,34a8,8,0,0,0,3.48-.75A6,6,0,0,0,134.57,31a.28.28,0,0,1,.18-.1c.05,0,.07,0,.07.15v1.57a1,1,0,1,0,2,0V14.35a9.31,9.31,0,0,0-1.82-6A6.18,6.18,0,0,0,129.87,6.05Zm4.95,20.2a5.58,5.58,0,0,1-1.72,4.42,6.07,6.07,0,0,1-4.18,1.53,4.49,4.49,0,0,1-3.37-1.3A5.44,5.44,0,0,1,124.27,27a6,6,0,0,1,1.68-4.6,6.35,6.35,0,0,1,4.47-1.55h4.2a.18.18,0,0,1,.2.2Z"/><path class="cls-1" d="M156.9,26.28A1,1,0,0,0,156,27a.66.66,0,0,0-.06.26v.2a4.46,4.46,0,0,1-1.47,3.32,5.17,5.17,0,0,1-3.73,1.43,4.77,4.77,0,0,1-3.7-1.6,5.84,5.84,0,0,1-1.45-4.05V13.45A5.77,5.77,0,0,1,147,9.38a4.82,4.82,0,0,1,3.7-1.58,5.16,5.16,0,0,1,3.73,1.42,4.51,4.51,0,0,1,1.45,3h0a1,1,0,0,0,2,0h0A5.94,5.94,0,0,0,157,9.33,6.65,6.65,0,0,0,154.45,7a7.57,7.57,0,0,0-3.73-.9A6.78,6.78,0,0,0,145.6,8.1a7.31,7.31,0,0,0-2,5.3V26.6a7.31,7.31,0,0,0,2,5.3A6.78,6.78,0,0,0,150.72,34a7.57,7.57,0,0,0,3.73-.9A6.65,6.65,0,0,0,157,30.67a6,6,0,0,0,.9-3.17v-.25a.62.62,0,0,0-.05-.25A1,1,0,0,0,156.9,26.28Z"/><rect class="cls-2" width="190" height="40"/></g></g></svg>