<svg xmlns="http://www.w3.org/2000/svg" viewBox="0 0 129.94 67.57"><defs><style>.cls-1,.cls-2{fill:#333;}.cls-2{fill-rule:evenodd;}.cls-3{fill:none;}</style></defs><title>logo-freshco</title><g id="Layer_2" data-name="Layer 2"><g id="Layer_3" data-name="Layer 3"><path class="cls-1" d="M129.73,26.48a14.53,14.53,0,0,0-4.25-8.23A8,8,0,0,0,128.1,15c.35-.78.68-1.58,1-2.38l.41-1a.88.88,0,0,0-.08-.9l-.16-.21-.26-.07a1.55,1.55,0,0,0-.23-.06l-.68-.08-2-.25L126,10a14.88,14.88,0,0,0-1.53-.11,5.12,5.12,0,0,0-.69,0,7.78,7.78,0,0,0-5.71,3.44,7.2,7.2,0,0,0-.58,1,11.76,11.76,0,0,0-1.68-.12,12.59,12.59,0,0,0-2.1.18,13.52,13.52,0,0,0-8.2,4.6A14.76,14.76,0,0,0,102,31.91a14.38,14.38,0,0,0,4.78,8.36,13.65,13.65,0,0,0,7.74,3.36,10.36,10.36,0,0,0,1.25.07,15.94,15.94,0,0,0,5.64-1.14,9.39,9.39,0,0,0,2.46-1.51,15,15,0,0,0,5.82-14.57Zm-5.63-1.4a6.88,6.88,0,0,0-3.49-2.2,13.44,13.44,0,0,0-3.07-.53l-.13,0c.15-1.19.3-2.38.46-3.6.48.06.93.1,1.38.17a8.16,8.16,0,0,0,3.19,0h0c.51-.28.86,0,1.24.33a13.2,13.2,0,0,1,2.49,16.61l-.07.1a18.46,18.46,0,0,0,.36-2.08A11.17,11.17,0,0,0,124.1,25.08Zm-2.86,15.38c-7,3.56-15.25-.41-17.24-8.28a12.94,12.94,0,0,1,7.82-15.28,11.83,11.83,0,0,1,5.3-.65.42.42,0,0,1,.3.11l-.71,1.69H115c.17,1.37.33,2.69.5,4.06a2.66,2.66,0,0,1-1.3-.61A4.15,4.15,0,0,1,113,19.73c0-.12-.08-.23-.13-.34a.55.55,0,0,0-.71-.35.57.57,0,0,0-.32.74,4.74,4.74,0,0,0,3.59,3.53,10,10,0,0,0,1.9.19,12.28,12.28,0,0,1,2.94.48,6.63,6.63,0,0,1,4.63,4.67,11.17,11.17,0,0,1-.71,9,8.36,8.36,0,0,1-.94,1.35A5.67,5.67,0,0,1,121.24,40.46Zm-4.58-21.2a7.38,7.38,0,0,1-.25,1.54c-.06-.51-.12-1-.19-1.54A.56.56,0,0,1,116.66,19.26Zm5.57-7a6.22,6.22,0,0,1,3.19-.4l1.42.18a1.32,1.32,0,0,1,.42.09c-.63,1.49-1.12,3-2.37,4.15A6,6,0,0,1,120,17.8l-.5-.07,0-.05c0-.11.17-.15.27-.22l4.13-2.75a3.06,3.06,0,0,0,.29-.21.59.59,0,0,0,.1-.73.53.53,0,0,0-.69-.22,2.61,2.61,0,0,0-.28.17l-4.46,3-.34.21A7,7,0,0,1,122.23,12.27Z"/><path class="cls-1" d="M56.36,64.88a4.18,4.18,0,0,1-1-.14,2.37,2.37,0,0,1-1.5-1.3,2.55,2.55,0,0,1,0-2.16,4.46,4.46,0,0,1,1-1.31l.24-.22a.1.1,0,0,1,0,0,1.6,1.6,0,0,1-.16-.23,2.94,2.94,0,0,1-.43-2.37,2,2,0,0,1,1.37-1.41A2,2,0,0,1,57.7,56a1.9,1.9,0,0,1,.45,2.32,3.87,3.87,0,0,1-1,1.18l-.45.38,1.83,2.16a2.92,2.92,0,0,0,.22-1,.75.75,0,0,1,.27-.64.67.67,0,0,1,.61-.07.45.45,0,0,1,.31.4,4.13,4.13,0,0,1-.58,2.28l.76.91a.47.47,0,0,1,.08.41.44.44,0,0,1-.3.29c-.53.15-.7,0-1.07-.41L58.6,64l-.19.15A3.25,3.25,0,0,1,56.36,64.88Zm-.55-4.2a4.31,4.31,0,0,0-.85,1,1.41,1.41,0,0,0-.07,1.2,1.2,1.2,0,0,0,.81.69,2.1,2.1,0,0,0,2.14-.5Zm.64-3.86a.89.89,0,0,0-.67.26,1,1,0,0,0-.21.87A2.4,2.4,0,0,0,56,59a7.15,7.15,0,0,0,.81-.72,1.27,1.27,0,0,0,.31-.48.76.76,0,0,0-.06-.69.66.66,0,0,0-.51-.29Z"/><path class="cls-1" d="M65.54,64.92a3.4,3.4,0,0,1-.94-.14,3.31,3.31,0,0,1-2.2-2.15,7.37,7.37,0,0,1,0-4.84,3.33,3.33,0,0,1,2.26-2.09,3.16,3.16,0,0,1,4.06,3,.42.42,0,0,1-.28.44,1.55,1.55,0,0,1-.84,0,.43.43,0,0,1-.29-.18,1.06,1.06,0,0,1-.17-.45,1.51,1.51,0,0,0-1.71-1.41,1.8,1.8,0,0,0-1.69,1.51,6.21,6.21,0,0,0-.13,1.57v.38a4.31,4.31,0,0,0,.24,1.63,1.73,1.73,0,0,0,1,1.1,2,2,0,0,0,1.62-.14,1.45,1.45,0,0,0,.65-1.07l.08-.36a.42.42,0,0,1,.27-.31,1.43,1.43,0,0,1,.66-.08h.16a.41.41,0,0,1,.31.14.45.45,0,0,1,.12.33,3.12,3.12,0,0,1-1.14,2.36A3.28,3.28,0,0,1,65.54,64.92Zm7.08,0a3.23,3.23,0,0,1-3-2.11,5,5,0,0,1-.37-1.69,7.58,7.58,0,0,1,.36-3.34,3.33,3.33,0,0,1,5.55-1.06,4.23,4.23,0,0,1,1,2.41,8.38,8.38,0,0,1,.06,1.08,6.73,6.73,0,0,1-.38,2.55,3.25,3.25,0,0,1-3.1,2.16Zm0-7.75A1.65,1.65,0,0,0,71,58.45,6.12,6.12,0,0,0,71,62a1.7,1.7,0,0,0,2,1.33A1.86,1.86,0,0,0,74.5,61.7a6.58,6.58,0,0,0,.09-1.25v-.26a5.9,5.9,0,0,0-.13-1.55,1.81,1.81,0,0,0-1.66-1.51Z"/><path class="cls-2" d="M83.94,45.44c-1.2.15-2.31.27-3.42.44-1.61.26-3.21.52-4.81.85-2,.42-4.08.9-6.1,1.45s-3.86,1.11-5.78,1.72c-1.68.54-3.34,1.13-5,1.72s-3.11,1.18-4.66,1.79C52.09,54.23,50,55.1,48,56c-2.35,1-4.67,2.13-7,3.23-2.09,1-4.16,2-6.24,3.06-2.53,1.25-5,2.56-7.51,3.91l-2,1.06a1,1,0,0,1-1.53-.73,1.12,1.12,0,0,1,.48-1.15c1.24-.66,2.5-1.29,3.72-2,1.77-1,3.61-1.89,5.42-2.82C35,59.73,36.66,59,38.3,58.16L43,55.91c1.32-.62,2.64-1.23,4-1.83s2.74-1.21,4.13-1.78c2.29-.92,4.58-1.84,6.89-2.68,1.84-.67,3.69-1.32,5.56-1.92,2.49-.8,5-1.49,7.54-2.13S76.17,44.4,78.74,44c1.62-.26,3.24-.51,4.87-.68a8.28,8.28,0,0,1,1-.09.45.45,0,0,0,.45-.32C86,40.82,87,38.81,88,36.81s2.09-4,3.17-5.9c.67-1.23,1.34-2.45,2-3.69,1.14-2.18,2.25-4.39,3.51-6.51.63-1.07,1.2-2.16,1.8-3.25a.11.11,0,0,0,0-.14c-.73.64-1.48,1.26-2.2,1.91A33.24,33.24,0,0,0,93.52,22c-1.39,1.58-2.79,3.16-4.06,4.87A57.7,57.7,0,0,0,85.37,33a38.69,38.69,0,0,0-1.72,3.55c-.23.53-.48,1.06-.72,1.58a1,1,0,0,1-1.31.62,1.17,1.17,0,0,1-.72-1.4A27.48,27.48,0,0,1,82,33.9c.7-1.78,1.49-3.52,2.3-5.24,1-2.16,2.08-4.3,3.11-6.44.63-1.31,1.26-2.61,1.88-3.92a.33.33,0,0,0,.07-.27c-.16,0-.19.18-.27.27l-3.62,4.06c-1.55,1.75-3.19,3.4-4.78,5.1-.71.74-1.42,1.49-2.15,2.21a1,1,0,0,0-.3.9A25.56,25.56,0,0,1,78,38.13a11.16,11.16,0,0,1-1.18,3.29,3.94,3.94,0,0,1-1.35,1.4,2.79,2.79,0,0,1-3.33-.48,6.46,6.46,0,0,1-1.84-4.77,5.75,5.75,0,0,1,.8-2.37,15.55,15.55,0,0,1,2.15-3c.83-.95,1.72-1.84,2.58-2.75A.56.56,0,0,0,76,29c-.23-1.26-.57-2.49-.9-3.76a4.13,4.13,0,0,0-.7.9L69.23,33c-1.25,1.67-2.55,3.31-3.91,4.89s-2.45,3-3.81,4.34a22.65,22.65,0,0,1-4.14,3.51,5.53,5.53,0,0,1-2.38.92,2.4,2.4,0,0,1-2.67-1.87A4.73,4.73,0,0,1,52,43.32a4.64,4.64,0,0,0-.09-.51,12.22,12.22,0,0,0-1.07,1.54,35.42,35.42,0,0,1-3.2,4.29A7.69,7.69,0,0,1,44,51.23a1.73,1.73,0,0,1-2.09-1.14,4.23,4.23,0,0,1,0-2.54,23.33,23.33,0,0,1,1.78-4.36c1.8-3.71,3.85-7.26,5.86-10.83.72-1.28,1.59-2.47,2.36-3.72A5.23,5.23,0,0,0,52.61,27a.64.64,0,0,0-.31-.82c-.36-.24-.74-.46-1.1-.68a1.85,1.85,0,0,0-.58.53A38.77,38.77,0,0,1,47,29.72,48.39,48.39,0,0,1,41.81,34a24.75,24.75,0,0,1-4.7,2.65,1.64,1.64,0,0,0-.8.9c-1.29,2.57-2.59,5.13-3.83,7.72-1,2.13-2,4.28-2.9,6.44C29,53.1,28.35,54.52,27.77,56a38.1,38.1,0,0,0-1.89,5.21,5.58,5.58,0,0,0-.1.59,1,1,0,0,1-1.08.94,1,1,0,0,1-1-1.05,8.17,8.17,0,0,1,.48-2.19c.68-2.05,1.51-4,2.34-6,.75-1.8,1.55-3.57,2.34-5.36,1.2-2.74,2.54-5.41,3.83-8.11.27-.57.59-1.12.88-1.68a.43.43,0,0,0,.08-.24c-.08-.12-.18-.07-.27,0a16.2,16.2,0,0,1-3.82.83,4.39,4.39,0,0,1-1.2,0,1.1,1.1,0,0,1-.06-2.16,1.78,1.78,0,0,1,.65,0,7.1,7.1,0,0,0,1.45-.18,26,26,0,0,0,4.38-1.26,1.08,1.08,0,0,0,.64-.58c1.17-2.25,2.46-4.43,3.8-6.57,1.59-2.54,3-5.17,4.63-7.7,1.17-1.86,2.31-3.75,3.39-5.67a9.07,9.07,0,0,0,.55-1.13c.15-.34.07-.55-.27-.63a5.59,5.59,0,0,0-2.3-.2c-.44.07-.89,0-1.34.08-1.63.14-3.25.42-4.87.67s-3.07.5-4.6.77c-1,.16-1.94.35-2.92.51-1.16.19-2.33.36-3.5.54L23.94,16c-1.41.22-2.82.44-4.23.69A56.74,56.74,0,0,0,10.47,19a21.92,21.92,0,0,0-5.59,2.92,7.66,7.66,0,0,0-2.23,2.27,4,4,0,0,0-.22,3.72,5.85,5.85,0,0,0,2.82,2.8,18.17,18.17,0,0,0,5.73,2c1.18.22,2.38.41,3.57.57a24.41,24.41,0,0,0,3,.22h2a29.64,29.64,0,0,1,3.12.16,1.06,1.06,0,0,1,1,1.15,1,1,0,0,1-1.1,1c-1.65-.15-3.31-.09-5-.15a34,34,0,0,1-4.72-.47c-1.06-.18-2.12-.35-3.16-.58a19,19,0,0,1-4.26-1.4,12.72,12.72,0,0,1-3-1.85A6.46,6.46,0,0,1,.05,27,6.24,6.24,0,0,1,1.6,22a16.15,16.15,0,0,1,5.3-3.8,34,34,0,0,1,4.24-1.74c1.61-.52,3.25-.89,4.89-1.27,2-.46,3.93-.78,5.91-1.1s4.23-.66,6.34-1c2.91-.41,5.79-1,8.69-1.44,1.75-.29,3.51-.58,5.27-.82.95-.13,1.91-.2,2.87-.26a8.1,8.1,0,0,1,3.28.4A2.39,2.39,0,0,1,50,13.52a4.12,4.12,0,0,1-.51,1.6c-.82,1.56-1.73,3.06-2.64,4.56-1.44,2.36-2.89,4.72-4.28,7.1-1,1.74-2.09,3.45-3.13,5.17-.29.48-.57,1-.89,1.52a3.78,3.78,0,0,0,1-.53,46.13,46.13,0,0,0,5.83-4.52,26.36,26.36,0,0,0,2.09-2c.82-.93,1.74-1.77,2.51-2.75a.69.69,0,0,0,.17-.39A6.05,6.05,0,0,1,51,20.62a53.83,53.83,0,0,1,3.89-6.06c.62-.82,1.27-1.62,2-2.38a5.2,5.2,0,0,1,.83-.86,1.19,1.19,0,0,1,1.92.93,2.93,2.93,0,0,1-.31,1.3,21.79,21.79,0,0,1-1.57,3.13A59.83,59.83,0,0,1,53.32,23c-.21.28-.45.54-.68.83a3.32,3.32,0,0,0,.82.56,2.78,2.78,0,0,1,1.15,3.22,9.81,9.81,0,0,1-1.53,3.13c-1.21,1.78-2.29,3.65-3.33,5.55-.92,1.66-1.85,3.32-2.74,5a58.67,58.67,0,0,0-2.85,6A5.28,5.28,0,0,0,43.77,49a2.87,2.87,0,0,0,1.28-.76,20,20,0,0,0,3.18-3.73c1.25-1.75,2.36-3.6,3.51-5.42a47.12,47.12,0,0,0,2.44-4.33c.75-1.51,1.62-3,2.49-4.4a50.38,50.38,0,0,1,3.19-4.7,28.07,28.07,0,0,1,3.2-3.51,12.9,12.9,0,0,1,3.21-2.34,3.9,3.9,0,0,1,1.8-.48,1.79,1.79,0,0,1,1.77,1.6,3.88,3.88,0,0,1-.28,2,15.18,15.18,0,0,1-1.89,3.3,40.61,40.61,0,0,1-4.55,5.24,25.48,25.48,0,0,1-3.47,3,23.85,23.85,0,0,1-3.32,1.92,2.55,2.55,0,0,0-1.27,1.39,12.37,12.37,0,0,0-1,4.92A4.62,4.62,0,0,0,54.27,44c.14.48.33.56.79.41a8.43,8.43,0,0,0,2.76-1.68,32.22,32.22,0,0,0,2.49-2.33c.7-.71,1.34-1.48,2-2.24s1.19-1.46,1.81-2.17c1-1.19,2-2.44,3-3.71,1.14-1.53,2.3-3,3.45-4.55s2.26-3.07,3.35-4.64c.32-.46.65-.91,1-1.37a3.41,3.41,0,0,0,.35-.65,19.81,19.81,0,0,1,2.86-4.6A15.9,15.9,0,0,1,79.42,15a1.15,1.15,0,0,1,1.28-.38,1.2,1.2,0,0,1,.59,1.65,8.79,8.79,0,0,1-.7,1.09c-1,1.41-2,2.84-3.07,4.2A2.85,2.85,0,0,0,77,23.81a24.06,24.06,0,0,0,.81,3.43s0,.05,0,.08c.17,0,.25-.17.35-.27,1.43-1.5,2.87-3,4.29-4.51,1.1-1.19,2.16-2.42,3.26-3.62,1.36-1.49,2.63-3.05,3.85-4.65q2.2-2.88,4.36-5.79a34.9,34.9,0,0,0,2.43-4.13A38.93,38.93,0,0,1,98.75.51a1,1,0,0,1,1.5-.32,1.2,1.2,0,0,1,.33,1.47,12.73,12.73,0,0,1-1,1.86c-1,1.68-2.07,3.32-3,5-.78,1.34-1.47,2.74-2.17,4.13q-1.25,2.46-2.45,4.93-1.5,3.15-2.94,6.34l1.68-2c.21-.25.43-.49.65-.74a27.7,27.7,0,0,1,2.8-2.93c.76-.65,1.49-1.36,2.24-2s1.73-1.51,2.66-2.17a2.11,2.11,0,0,1,1.32-.49,1.31,1.31,0,0,1,1.24,1.56,6.19,6.19,0,0,1-.48,1.53A48.15,48.15,0,0,1,98.33,22q-1.17,2.05-2.25,4.14c-.69,1.33-1.4,2.66-2.11,4l-3.11,5.74q-1.8,3.35-3.42,6.8a.37.37,0,0,0-.07.25.14.14,0,0,0,.17.08A5.91,5.91,0,0,1,89,42.88a23.41,23.41,0,0,1,2.51-.1c.82,0,1.64-.07,2.46-.09,1.17,0,2.34,0,3.51.1a26,26,0,0,1,5.68.77,10,10,0,0,1,3.9,2,5.31,5.31,0,0,1,2,4.32,7.48,7.48,0,0,1-.78,3,18.44,18.44,0,0,1-2.57,4c-.69.84-1.42,1.64-2.18,2.41a31.43,31.43,0,0,1-4.63,3.85,35.07,35.07,0,0,1-4.28,2.56A17.62,17.62,0,0,1,89,67.49a7.71,7.71,0,0,1-3.89-.43,6.4,6.4,0,0,1-3.25-2.93,10.57,10.57,0,0,1-1.19-4.5A19.51,19.51,0,0,1,80.73,57a21.84,21.84,0,0,1,.52-3.12,45.53,45.53,0,0,1,1.31-4.74c.35-1,.75-2.1,1.17-3.13Zm2.42,0-.16.42c-.63,1.44-1.2,2.92-1.69,4.41a30.23,30.23,0,0,0-1.59,7,11.48,11.48,0,0,0,.38,4.59,4.86,4.86,0,0,0,2.17,2.82,5.08,5.08,0,0,0,3.37.48,15.44,15.44,0,0,0,4.56-1.49,31.69,31.69,0,0,0,10.38-8.11,16.56,16.56,0,0,0,2.62-4.07,4,4,0,0,0,.42-2,3.39,3.39,0,0,0-1.42-2.37,8.63,8.63,0,0,0-4.4-1.72c-1.06-.15-2.12-.23-3.19-.31s-2.06-.1-3.08-.09c-2.13,0-4.26,0-6.38.2A19.87,19.87,0,0,0,86.36,45.43ZM57.84,32.87a13.61,13.61,0,0,0,2.56-1.95,61,61,0,0,0,4.33-4.61,23.21,23.21,0,0,0,2.39-3.47,2.23,2.23,0,0,0,.41-1.05,5.11,5.11,0,0,0-1.51.83,25.16,25.16,0,0,0-4.57,4.65,46.11,46.11,0,0,0-3.05,4.58A5.7,5.7,0,0,0,57.84,32.87Zm18.29-.35a15.79,15.79,0,0,0-3.34,4.2,2.28,2.28,0,0,0-.33,1.06,4.07,4.07,0,0,0,1.07,2.72c.43.5.85.46,1.23-.09a7.62,7.62,0,0,0,1.07-2.81,18.56,18.56,0,0,0,.3-2.46A22.9,22.9,0,0,0,76.13,32.52Z"/><rect class="cls-3" width="129.94" height="67.57"/></g></g></svg>