<svg xmlns="http://www.w3.org/2000/svg" viewBox="0 0 16 16"><defs><style>.cls-1{isolation:isolate;}.cls-2{opacity:0.7;mix-blend-mode:multiply;}</style></defs><title>mail</title><g class="cls-1"><g id="Layer_3" data-name="Layer 3"><path d="M13.32,6.87a5.53,5.53,0,0,0-.9-2.43,4.85,4.85,0,0,0-1.88-1.63A5.73,5.73,0,0,0,8,2.24,5.34,5.34,0,0,0,5.25,3,5.16,5.16,0,0,0,3.33,5a6.24,6.24,0,0,0-.7,3c0,.4,0,.71,0,.91a5.93,5.93,0,0,0,.9,2.55A4.91,4.91,0,0,0,5.4,13.17a5.16,5.16,0,0,0,2.43.59,5.76,5.76,0,0,0,1.76-.25,4,4,0,0,0,1.28-.67.35.35,0,0,0,.17-.36.5.5,0,0,0-.1-.22l-.3-.37a.41.41,0,0,0-.32-.15.36.36,0,0,0-.25.08,3,3,0,0,1-.91.47,3.76,3.76,0,0,1-1.29.2A3.74,3.74,0,0,1,4.7,10.78a4.52,4.52,0,0,1-.71-2,5.74,5.74,0,0,1,0-.73,5.28,5.28,0,0,1,.53-2.39A4.08,4.08,0,0,1,5.93,4.07,3.83,3.83,0,0,1,8,3.49a4.34,4.34,0,0,1,1.93.43A3.53,3.53,0,0,1,11.3,5.14,4.36,4.36,0,0,1,12,7c0,.22,0,.46,0,.72a3,3,0,0,1-.36,1.61,1,1,0,0,1-.87.51.89.89,0,0,1-.66-.25,1.21,1.21,0,0,1-.33-.73,1.14,1.14,0,0,1,0-.25V5.44a.41.41,0,0,0-.12-.32A.42.42,0,0,0,9.36,5H8.85a.36.36,0,0,0-.33.18A1.43,1.43,0,0,0,8.24,5a1.63,1.63,0,0,0-.64-.13,1.63,1.63,0,0,0-1.3.54,2.07,2.07,0,0,0-.48,1.39c0,.37,0,.75,0,1.12a13.2,13.2,0,0,0,0,1.42,1.93,1.93,0,0,0,.66,1.28,2,2,0,0,0,1.35.48,1.72,1.72,0,0,0,.84-.21,1.35,1.35,0,0,0,.47-.42,2.13,2.13,0,0,0,1.59.6,2.29,2.29,0,0,0,1.92-.92,4.06,4.06,0,0,0,.7-2.46A8.11,8.11,0,0,0,13.32,6.87Zm-4.85,0V9.13a.92.92,0,0,1-.21.59.61.61,0,0,1-.91,0,.9.9,0,0,1-.21-.57V8c0-.19,0-.41,0-.64a3.4,3.4,0,0,0,0-.49.84.84,0,0,1,.2-.57.64.64,0,0,1,.91,0,.69.69,0,0,1,.22.46A.82.82,0,0,1,8.47,6.88Z"/></g></g></svg>