<svg xmlns="http://www.w3.org/2000/svg" viewBox="0 0 16 16"><defs><style>.cls-1{isolation:isolate;}.cls-2{opacity:0.7;mix-blend-mode:multiply;}</style></defs><title>medium</title><g class="cls-1"><g id="Layer_3" data-name="Layer 3"><path d="M.5,13.59a1,1,0,0,0,.16-.13c.47-.56,1-1.13,1.4-1.71a1,1,0,0,0,.21-.56c0-2.18,0-4.36,0-6.54A1,1,0,0,0,2,3.89C1.59,3.43,1.21,3,.82,2.47a1.89,1.89,0,0,1-.18-.4H3.36c.45,0,.91,0,1.37,0a.39.39,0,0,1,.43.29q1.51,3.36,3.05,6.7l.17.35L9.84,5.75l1.38-3.44c0-.13.09-.25.29-.25h3.83l.16,0a1.37,1.37,0,0,1-.21.36c-.3.31-.64.6-.93.92a.84.84,0,0,0-.22.51q0,4.11,0,8.22a.84.84,0,0,0,.22.51c.28.33.62.62.92.93a1,1,0,0,1,.13.32,1.28,1.28,0,0,1-.28.07H9.87l-.36,0a1.47,1.47,0,0,1,.21-.38c.31-.32.65-.61.95-.94a.8.8,0,0,0,.21-.49c0-2.17,0-4.34,0-6.51a.62.62,0,0,0,0-.11l-.15.34L7.65,13.61c-.06.14-.07.31-.32.31s-.31-.12-.39-.3L3.36,5.81l-.17-.34c0,.18,0,.28,0,.37,0,1.76,0,3.51,0,5.27a1.19,1.19,0,0,0,.24.67c.44.59.93,1.14,1.39,1.72a2.52,2.52,0,0,1,.19.4H.5Z"/></g></g></svg>