<svg xmlns="http://www.w3.org/2000/svg" viewBox="0 0 16 16"><defs><style>.cls-1{isolation:isolate;}.cls-2{opacity:0.7;mix-blend-mode:multiply;}</style></defs><title>outlink</title><g class="cls-1"><g id="Layer_3" data-name="Layer 3"><path d="M13,10.25a.76.76,0,0,0-.75.75v.75a.5.5,0,0,1-.5.5H4.25a.5.5,0,0,1-.5-.5V4.25a.5.5,0,0,1,.5-.5H5a.75.75,0,0,0,0-1.5H4.25a2,2,0,0,0-2,2v7.5a2,2,0,0,0,2,2h7.5a2,2,0,0,0,2-2V11A.76.76,0,0,0,13,10.25Z"/><path d="M13.69,2.71A.76.76,0,0,0,13,2.25H9a.75.75,0,0,0,0,1.5h2.19L6.47,8.47a.75.75,0,0,0,0,1.06.75.75,0,0,0,1.06,0l4.72-4.72V7a.75.75,0,0,0,1.5,0V3A.72.72,0,0,0,13.69,2.71Z"/></g></g></svg>