<svg xmlns="http://www.w3.org/2000/svg" viewBox="0 0 16 16"><defs><style>.cls-1{isolation:isolate;}.cls-2{opacity:0.7;mix-blend-mode:multiply;}</style></defs><title>phone</title><g class="cls-1"><g id="Layer_3" data-name="Layer 3"><path d="M10.1,13.86c-1.34.17-3.33-.21-5.56-2.78C2,8.17,2.25,5.9,2.62,4.8A4,4,0,0,1,5.41,2.1c1.3-.3,1.89,1.15,2.14,1.76A2.38,2.38,0,0,1,7.67,6a2,2,0,0,1-.88.71,1.65,1.65,0,0,0-.31.17s0,.38,1,1.53S8.84,9.59,8.86,9.59h0S9,9.42,9,9.32a2,2,0,0,1,.83-.77A2.37,2.37,0,0,1,12,9c.57.33,1.92,1.11,1.44,2.37h0a4.21,4.21,0,0,1-3.13,2.48ZM5.67,3.54A2.69,2.69,0,0,0,4,5.27c-.45,1.37.13,3.09,1.64,4.83s3,2.5,4.35,2.25a2.66,2.66,0,0,0,2-1.53,3.71,3.71,0,0,0-.78-.54c-.61-.35-.77-.35-.81-.33s-.09.14-.15.23a1.9,1.9,0,0,1-1.09.87c-.85.18-1.71-.3-2.87-1.64S4.79,7.15,5.1,6.33a1.82,1.82,0,0,1,1-1l.28-.15a2.7,2.7,0,0,0-.24-.81C5.85,3.67,5.68,3.54,5.67,3.54Z"/></g></g></svg>